<?xml version="1.0" standalone="no"?>
<!DOCTYPE svg PUBLIC "-//W3C//DTD SVG 20010904//EN"
 "http://www.w3.org/TR/2001/REC-SVG-20010904/DTD/svg10.dtd">
<svg version="1.0" xmlns="http://www.w3.org/2000/svg"
 width="512.000000pt" height="512.000000pt" viewBox="0 0 512.000000 512.000000"
 preserveAspectRatio="xMidYMid meet">
<metadata>
Created by potrace 1.14, written by Peter Selinger 2001-2017
</metadata>
<g transform="translate(0.000000,512.000000) scale(0.100000,-0.100000)"
fill="#000000" stroke="none">
<path d="M2268 4849 c-755 -73 -1402 -624 -1589 -1352 -55 -216 -52 -138 -56
-1447 -4 -1360 -8 -1289 67 -1438 74 -148 213 -266 373 -318 96 -31 245 -38
337 -15 227 55 417 242 474 467 13 50 16 124 16 382 l0 321 568 4 c543 3 571
5 667 26 245 55 478 156 665 289 121 86 306 270 393 392 124 174 239 436 281
640 44 214 46 471 6 675 -147 747 -754 1297 -1519 1375 -119 12 -555 11 -683
-1z"/>
</g>
</svg>
